<svg xmlns="http://www.w3.org/2000/svg" viewBox="20 30 480 140" fill="none"><g transform="translate(20, 30) scale(0.7)"><rect x="20" y="20" width="160" height="160" rx="24" fill="#0e1018" stroke="oklch(0.82 0.17 198)" stroke-width="1.5" stroke-opacity="0.4"></rect><g stroke="rgba(180,200,220,0.36)" stroke-width="1"><line x1="36" y1="76" x2="164" y2="76"></line><line x1="36" y1="100" x2="164" y2="100"></line><line x1="36" y1="124" x2="164" y2="124"></line></g><g><rect x="44" y="70" width="22" height="12" rx="3" fill="rgba(255,255,255,0.92)"></rect><rect x="74" y="70" width="40" height="12" rx="3" fill="#FF6A2B"></rect><rect x="122" y="70" width="16" height="12" rx="3" fill="rgba(255,255,255,0.92)"></rect><rect x="144" y="70" width="16" height="12" rx="3" fill="#F6B23A"></rect><rect x="44" y="94" width="28" height="12" rx="3" fill="rgba(255,255,255,0.92)"></rect><rect x="78" y="94" width="18" height="12" rx="3" fill="rgba(255,255,255,0.32)"></rect><rect x="104" y="94" width="52" height="12" rx="3" fill="oklch(0.62 0.25 295)"></rect><rect x="44" y="118" width="14" height="12" rx="3" fill="rgba(255,255,255,0.92)"></rect><rect x="62" y="118" width="30" height="12" rx="3" fill="rgba(255,255,255,0.92)"></rect><rect x="98" y="118" width="22" height="12" rx="3" fill="oklch(0.62 0.25 295)"></rect><rect x="126" y="118" width="30" height="12" rx="3" fill="rgba(255,255,255,0.92)"></rect></g><g><line x1="138" y1="36" x2="138" y2="166" stroke="#FF6A2B" stroke-width="1.5" stroke-dasharray="2 3" opacity="0.85"></line><circle cx="138" cy="36" r="3" fill="#FF6A2B"></circle></g></g><g font-family="-apple-system, BlinkMacSystemFont, 'Segoe UI', system-ui, sans-serif" font-weight="600" font-size="56" letter-spacing="-1.2"><text x="180" y="118" fill="#f5f7fa">Flightdeck<tspan fill="#FF6A2B">.</tspan></text></g></svg>
